<mxfile host="app.diagrams.net" modified="2022-02-23T21:32:15.425Z" agent="5.0 (X11; Linux x86_64) AppleWebKit/537.36 (KHTML, like Gecko) Chrome/98.0.4758.102 Safari/537.36" etag="-74Tzk90ioIwDKa2DsZv" version="16.6.3" type="github">
  <diagram id="q0i3MR7ozIdaeOq8PGvd" name="Page-1">
    <mxGraphModel dx="2400" dy="1386" grid="1" gridSize="10" guides="1" tooltips="1" connect="1" arrows="1" fold="1" page="0" pageScale="1" pageWidth="827" pageHeight="1169" background="#114B5F" math="0" shadow="0">
      <root>
        <mxCell id="0" />
        <mxCell id="1" parent="0" />
        <mxCell id="vzJy018LqikGQ-qtc7hb-78" value="&lt;font style=&quot;font-size: 20px&quot;&gt;TCP PORT 11411&lt;/font&gt;" style="html=1;shadow=0;dashed=0;align=center;verticalAlign=middle;shape=mxgraph.arrows2.arrow;dy=0.6;dx=40;flipH=1;notch=0;fillColor=#F45B69;strokeColor=#028090;fontColor=#E4FDE1;" parent="1" vertex="1">
          <mxGeometry x="640" y="310" width="190" height="70" as="geometry" />
        </mxCell>
        <mxCell id="6bdO4IXp95gt8lCZRWzg-1" value="" style="image;html=1;image=img/lib/clip_art/computers/Server_Tower_128x128.png;rounded=0;sketch=0;fontSize=20;fontColor=#E4FDE1;strokeColor=#028090;fillColor=#F45B69;labelBackgroundColor=none;" vertex="1" parent="1">
          <mxGeometry x="510" y="285" width="90" height="120" as="geometry" />
        </mxCell>
        <mxCell id="6bdO4IXp95gt8lCZRWzg-2" value="OpenVPN&amp;nbsp;&lt;br&gt;Client" style="sketch=0;pointerEvents=1;shadow=0;dashed=0;html=1;strokeColor=none;fillColor=#DF8C42;labelPosition=center;verticalLabelPosition=bottom;verticalAlign=top;align=center;outlineConnect=0;shape=mxgraph.veeam2.open_vpn;rounded=0;fontSize=20;fontColor=#E4FDE1;" vertex="1" parent="1">
          <mxGeometry x="506" y="160" width="94" height="90" as="geometry" />
        </mxCell>
        <mxCell id="6bdO4IXp95gt8lCZRWzg-8" value="" style="ellipse;shape=cloud;whiteSpace=wrap;html=1;rounded=0;labelBackgroundColor=#FFFFFF;sketch=0;fontSize=20;" vertex="1" parent="1">
          <mxGeometry x="40" y="-350" width="280" height="240" as="geometry" />
        </mxCell>
        <mxCell id="6bdO4IXp95gt8lCZRWzg-9" value="Pritunl OpenVPN &lt;br&gt;SERVER" style="sketch=0;pointerEvents=1;shadow=0;dashed=0;html=1;strokeColor=none;fillColor=#DF8C42;labelPosition=center;verticalLabelPosition=bottom;verticalAlign=top;align=center;outlineConnect=0;shape=mxgraph.veeam2.open_vpn;rounded=0;fontSize=20;fontColor=#000000;" vertex="1" parent="1">
          <mxGeometry x="133" y="-310" width="94" height="90" as="geometry" />
        </mxCell>
        <mxCell id="6bdO4IXp95gt8lCZRWzg-14" value="" style="shape=flexArrow;endArrow=classic;startArrow=classic;html=1;rounded=1;sketch=0;fontSize=20;fontColor=#E4FDE1;curved=0;fillColor=#EA6B66;" edge="1" parent="1">
          <mxGeometry width="100" height="100" relative="1" as="geometry">
            <mxPoint x="-60" y="260" as="sourcePoint" />
            <mxPoint x="470" y="260" as="targetPoint" />
            <Array as="points">
              <mxPoint x="180" y="-110" />
            </Array>
          </mxGeometry>
        </mxCell>
        <mxCell id="6bdO4IXp95gt8lCZRWzg-16" value="" style="image;html=1;image=img/lib/clip_art/computers/Server_Tower_128x128.png;rounded=0;sketch=0;fontSize=20;fontColor=#E4FDE1;strokeColor=#028090;fillColor=#F45B69;labelBackgroundColor=none;" vertex="1" parent="1">
          <mxGeometry x="-305" y="260" width="400" height="120" as="geometry" />
        </mxCell>
        <mxCell id="6bdO4IXp95gt8lCZRWzg-17" value="&lt;span style=&quot;font-family: &amp;#34;helvetica&amp;#34; ; font-size: 20px ; font-style: normal ; font-weight: 400 ; letter-spacing: normal ; text-align: center ; text-indent: 0px ; text-transform: none ; word-spacing: 0px ; display: inline ; float: none&quot;&gt;tun0 192.168.12.2&lt;br&gt;&lt;span style=&quot;font-family: &amp;#34;helvetica&amp;#34;&quot;&gt;eth0 192.168.0.191&lt;/span&gt;&lt;br&gt;&lt;/span&gt;" style="text;whiteSpace=wrap;html=1;fontSize=20;fontColor=#000000;labelBackgroundColor=none;fillColor=default;" vertex="1" parent="1">
          <mxGeometry x="-200" y="405" width="230" height="80" as="geometry" />
        </mxCell>
        <mxCell id="6bdO4IXp95gt8lCZRWzg-18" value="&lt;font&gt;0.0.0.0/0&lt;/font&gt;" style="text;html=1;align=center;verticalAlign=middle;resizable=0;points=[];autosize=1;strokeColor=none;fillColor=default;fontSize=20;fontColor=#000000;" vertex="1" parent="1">
          <mxGeometry x="120" y="56" width="90" height="30" as="geometry" />
        </mxCell>
        <mxCell id="6bdO4IXp95gt8lCZRWzg-22" value="&lt;span style=&quot;font-family: helvetica; font-size: 20px; font-style: normal; font-weight: 400; letter-spacing: normal; text-align: center; text-indent: 0px; text-transform: none; word-spacing: 0px; display: inline; float: none;&quot;&gt;&amp;nbsp;192.168.12.0/24&lt;br&gt;&lt;br&gt;&lt;br&gt;&lt;/span&gt;" style="text;whiteSpace=wrap;html=1;fontSize=20;fontColor=#000000;labelBackgroundColor=none;fillColor=default;" vertex="1" parent="1">
          <mxGeometry x="120" y="86" width="170" height="30" as="geometry" />
        </mxCell>
        <mxCell id="6bdO4IXp95gt8lCZRWzg-24" value="&lt;span style=&quot;font-family: &amp;#34;helvetica&amp;#34; ; font-size: 20px ; font-style: normal ; font-weight: 400 ; letter-spacing: normal ; text-align: center ; text-indent: 0px ; text-transform: none ; word-spacing: 0px ; display: inline ; float: none&quot;&gt;tun0 192.168.12.3&lt;br&gt;&lt;span style=&quot;font-family: &amp;#34;helvetica&amp;#34;&quot;&gt;eth0 192.168.1.98&lt;/span&gt;&lt;br&gt;&lt;/span&gt;" style="text;whiteSpace=wrap;html=1;fontSize=20;fontColor=#000000;labelBackgroundColor=none;fillColor=default;" vertex="1" parent="1">
          <mxGeometry x="450" y="420" width="230" height="80" as="geometry" />
        </mxCell>
        <mxCell id="6bdO4IXp95gt8lCZRWzg-25" value="&lt;span style=&quot;font-family: &amp;#34;helvetica&amp;#34; ; font-size: 20px ; font-style: normal ; font-weight: 400 ; letter-spacing: normal ; text-align: center ; text-indent: 0px ; text-transform: none ; word-spacing: 0px ; display: inline ; float: none&quot;&gt;&lt;span style=&quot;font-family: &amp;#34;helvetica&amp;#34;&quot;&gt;eth0 192.168.1.99&lt;/span&gt;&lt;br&gt;&lt;/span&gt;" style="text;whiteSpace=wrap;html=1;fontSize=20;fontColor=#000000;labelBackgroundColor=none;fillColor=default;" vertex="1" parent="1">
          <mxGeometry x="860" y="470" width="230" height="40" as="geometry" />
        </mxCell>
        <mxCell id="6bdO4IXp95gt8lCZRWzg-27" value="" style="shape=image;html=1;verticalAlign=top;verticalLabelPosition=bottom;labelBackgroundColor=#ffffff;imageAspect=0;aspect=fixed;image=https://cdn2.iconfinder.com/data/icons/electronic-13/480/3-electronic-arduino-chipset-icon-2-128.png;rounded=0;sketch=0;fontSize=20;fontColor=#000000;strokeColor=#028090;fillColor=default;imageBackground=default;" vertex="1" parent="1">
          <mxGeometry x="900" y="310" width="128" height="128" as="geometry" />
        </mxCell>
        <mxCell id="6bdO4IXp95gt8lCZRWzg-28" value="Arduino Not on VPN" style="text;html=1;align=center;verticalAlign=middle;resizable=0;points=[];autosize=1;strokeColor=none;fillColor=default;fontSize=20;fontColor=#000000;" vertex="1" parent="1">
          <mxGeometry x="860" y="260" width="200" height="30" as="geometry" />
        </mxCell>
        <mxCell id="6bdO4IXp95gt8lCZRWzg-29" value="Arduino Not on VPN" style="text;html=1;align=center;verticalAlign=middle;resizable=0;points=[];autosize=1;strokeColor=none;fillColor=default;fontSize=20;fontColor=#000000;" vertex="1" parent="1">
          <mxGeometry x="455" y="116" width="200" height="30" as="geometry" />
        </mxCell>
      </root>
    </mxGraphModel>
  </diagram>
</mxfile>
